<svg width="133" height="29" viewBox="0 0 133 29" fill="none" xmlns="http://www.w3.org/2000/svg">
<g clip-path="url(#clip0)">
<path d="M71.0557 11.0069H68.3132C66.5476 11.0069 65.6017 12.3055 65.6017 14.4696V22.2922H60.4022V11.0069H58.1941C56.4285 11.0069 55.4826 12.3055 55.4826 14.4696V22.2922H50.2815V6.83277H55.4826V9.18419C56.3333 7.36373 57.5004 6.83277 59.2343 6.83277H65.6017V9.18419C66.4524 7.36373 67.6195 6.83277 69.3534 6.83277H71.0549L71.0557 11.0069ZM49.1462 15.7682H38.3016C38.5855 17.4999 39.6891 18.489 41.5499 18.489C42.9366 18.489 43.9142 17.9322 44.2289 16.9431L48.8322 18.2106C47.6968 20.9003 44.8879 22.5395 41.5499 22.5395C35.9041 22.5395 33.3217 18.2417 33.3217 14.5621C33.3217 10.9447 35.5916 6.61659 41.2343 6.61659C47.2243 6.61659 49.2104 11.0069 49.2104 14.2534C49.2096 14.9641 49.1779 15.4283 49.1462 15.7682ZM44.1021 12.769C43.976 11.4393 42.9992 10.2029 41.2336 10.2029C39.5947 10.2029 38.6172 10.9144 38.3016 12.769H44.1021ZM24.2421 22.2922H28.8128L34.5189 6.83277H29.2862L26.512 15.8304L23.6744 6.83277H18.4733L24.2421 22.2922ZM2.93194 22.2922H8.10209V11.0069H13.0193V22.2922H18.1578V6.83277H8.10363V5.87475C8.10209 4.82344 8.85847 4.17187 10.0541 4.17187H13.017V0H9.2034C5.45398 0 2.93194 2.25736 2.93194 5.56528V6.83277H0V11.0046H2.93194V22.2922Z" fill="#404145"/>
<path d="M78.9632 19.99V22.2883H75.9346V0.37915H78.9632V9.11126C79.9005 7.60938 81.8062 6.59827 83.9624 6.59827C88.7737 6.59827 91.4922 9.96915 91.4922 14.5628C91.4922 19.1564 88.7737 22.5272 83.9307 22.5272C81.8394 22.5341 79.9029 21.5222 78.9632 19.99ZM88.3986 14.5635C88.3986 11.3459 86.493 9.20076 83.5873 9.20076C80.6484 9.20076 78.7443 11.3459 78.7443 14.5635C78.7443 17.7812 80.65 19.927 83.5873 19.927C86.4953 19.9293 88.3986 17.7842 88.3986 14.5635Z" fill="#404145"/>
<path d="M92.8564 0.37915H95.8866V22.2883H92.8564V0.37915Z" fill="#404145"/>
<path d="M97.1465 14.5636C97.1465 9.93662 100.549 6.59912 105.271 6.59912C109.993 6.59912 113.363 9.93662 113.363 14.5636C113.363 19.1906 109.989 22.5281 105.271 22.5281C100.553 22.5281 97.1465 19.1906 97.1465 14.5636ZM110.27 14.5636C110.27 11.4074 108.239 9.20085 105.271 9.20085C102.271 9.20085 100.24 11.4074 100.24 14.5636C100.24 17.7198 102.271 19.9271 105.271 19.9271C108.239 19.9294 110.27 17.7228 110.27 14.5636Z" fill="#404145"/>
<path d="M133 20.5833V20.6189C133 21.1235 132.796 21.6073 132.432 21.9641C132.069 22.3209 131.575 22.5213 131.061 22.5213C130.546 22.5213 130.053 22.3209 129.689 21.9641C129.325 21.6073 129.121 21.1235 129.121 20.6189V20.5833C129.121 20.0787 129.325 19.5949 129.689 19.2381C130.053 18.8813 130.546 18.6809 131.061 18.6809C131.575 18.6809 132.069 18.8813 132.432 19.2381C132.796 19.5949 133 20.0787 133 20.5833Z" fill="#404145"/>
<path d="M128.349 23.7182C128.349 26.5073 126.571 28.5606 123.477 28.5606H118.605C115.356 28.5606 113.605 26.6908 113.605 23.9943C113.605 22.7048 114.324 21.5731 115.261 20.8373C114.48 20.2859 114.043 19.4894 114.043 18.4472C114.043 17.1577 114.824 16.3021 115.949 15.1992C115.261 14.3102 114.887 13.2074 114.887 11.9505C114.887 8.73283 117.448 6.61883 120.948 6.61883C121.8 6.61922 122.646 6.76421 123.448 7.0474L125.599 4.62695L127.533 6.31239L125.626 8.45749C126.515 9.41179 127.005 10.6583 127.001 11.9505C127.001 15.1992 124.439 17.2829 120.94 17.2829C119.779 17.2829 118.752 17.0682 117.878 16.67C117.253 17.3443 116.971 17.6811 116.971 18.2333C116.971 19.1216 117.752 19.4591 118.721 19.4591H123.096C126.131 19.4591 128.349 20.8684 128.349 23.7182ZM125.381 23.9329C125.381 22.4621 124.444 21.8492 122.851 21.8492H119.195C118.661 21.8563 118.127 21.8152 117.601 21.7263C116.789 22.3392 116.539 23.1053 116.539 23.9025C116.539 25.1283 117.445 26.078 118.694 26.078H123.35C124.85 26.078 125.381 25.1586 125.381 23.9329ZM117.789 11.9482C117.789 13.7869 119.226 14.8905 120.944 14.8905C122.663 14.8905 124.1 13.7869 124.1 11.9482C124.1 10.0792 122.663 8.97556 120.944 8.97556C119.226 8.97556 117.788 10.0815 117.788 11.9505L117.789 11.9482Z" fill="#404145"/>
</g>
<defs>
<clipPath id="clip0">
<rect width="133" height="28.5606" fill="white"/>
</clipPath>
</defs>
</svg>
